<mxfile host="app.diagrams.net" modified="2023-04-04T09:59:37.736Z" agent="Mozilla/5.0 (X11; Linux x86_64) AppleWebKit/537.36 (KHTML, like Gecko) Chrome/111.0.0.0 Safari/537.36" etag="2dIXUeuFY50KSRe643OA" version="21.1.4" type="github">
  <diagram name="Page-1" id="u_sAQxTu393D8Fef6HZW">
    <mxGraphModel dx="880" dy="463" grid="1" gridSize="10" guides="1" tooltips="1" connect="1" arrows="1" fold="1" page="1" pageScale="1" pageWidth="850" pageHeight="1100" math="0" shadow="0">
      <root>
        <mxCell id="0" />
        <mxCell id="1" parent="0" />
        <mxCell id="KU8-5TRD34kJplSvUw6b-4" style="edgeStyle=orthogonalEdgeStyle;rounded=0;orthogonalLoop=1;jettySize=auto;html=1;exitX=1;exitY=0.75;exitDx=0;exitDy=0;entryX=0;entryY=0.75;entryDx=0;entryDy=0;" edge="1" parent="1" source="l5Z1TcpUIsbjkMdmSIx9-1" target="KU8-5TRD34kJplSvUw6b-1">
          <mxGeometry relative="1" as="geometry" />
        </mxCell>
        <mxCell id="KU8-5TRD34kJplSvUw6b-7" value="Response" style="edgeLabel;html=1;align=center;verticalAlign=middle;resizable=0;points=[];" vertex="1" connectable="0" parent="KU8-5TRD34kJplSvUw6b-4">
          <mxGeometry x="0.4488" y="-2" relative="1" as="geometry">
            <mxPoint x="-31" y="-3" as="offset" />
          </mxGeometry>
        </mxCell>
        <mxCell id="KU8-5TRD34kJplSvUw6b-10" style="edgeStyle=orthogonalEdgeStyle;rounded=0;orthogonalLoop=1;jettySize=auto;html=1;exitX=0.25;exitY=1;exitDx=0;exitDy=0;entryX=0;entryY=0.5;entryDx=0;entryDy=0;" edge="1" parent="1" source="l5Z1TcpUIsbjkMdmSIx9-1" target="l5Z1TcpUIsbjkMdmSIx9-10">
          <mxGeometry relative="1" as="geometry" />
        </mxCell>
        <mxCell id="l5Z1TcpUIsbjkMdmSIx9-1" value="speech_python(Node)" style="rounded=0;whiteSpace=wrap;html=1;" parent="1" vertex="1">
          <mxGeometry x="150" y="200" width="270" height="80" as="geometry" />
        </mxCell>
        <mxCell id="l5Z1TcpUIsbjkMdmSIx9-4" style="edgeStyle=orthogonalEdgeStyle;rounded=0;orthogonalLoop=1;jettySize=auto;html=1;exitX=0.75;exitY=1;exitDx=0;exitDy=0;entryX=1;entryY=0.5;entryDx=0;entryDy=0;" parent="1" source="l5Z1TcpUIsbjkMdmSIx9-5" target="l5Z1TcpUIsbjkMdmSIx9-6" edge="1">
          <mxGeometry relative="1" as="geometry" />
        </mxCell>
        <mxCell id="KU8-5TRD34kJplSvUw6b-2" value="Request" style="edgeStyle=orthogonalEdgeStyle;rounded=0;orthogonalLoop=1;jettySize=auto;html=1;exitX=0;exitY=0.25;exitDx=0;exitDy=0;entryX=1;entryY=0.25;entryDx=0;entryDy=0;" edge="1" parent="1" source="l5Z1TcpUIsbjkMdmSIx9-5" target="KU8-5TRD34kJplSvUw6b-1">
          <mxGeometry relative="1" as="geometry" />
        </mxCell>
        <mxCell id="l5Z1TcpUIsbjkMdmSIx9-5" value="Chatbot(Node)" style="rounded=0;whiteSpace=wrap;html=1;" parent="1" vertex="1">
          <mxGeometry x="900" y="200" width="200" height="80" as="geometry" />
        </mxCell>
        <mxCell id="KU8-5TRD34kJplSvUw6b-12" value="Chatbot instance" style="edgeStyle=orthogonalEdgeStyle;rounded=0;orthogonalLoop=1;jettySize=auto;html=1;exitX=0.5;exitY=1;exitDx=0;exitDy=0;entryX=0.5;entryY=0;entryDx=0;entryDy=0;" edge="1" parent="1" source="l5Z1TcpUIsbjkMdmSIx9-6" target="KU8-5TRD34kJplSvUw6b-11">
          <mxGeometry relative="1" as="geometry" />
        </mxCell>
        <mxCell id="l5Z1TcpUIsbjkMdmSIx9-6" value="Behaviortree" style="rounded=0;whiteSpace=wrap;html=1;" parent="1" vertex="1">
          <mxGeometry x="800" y="320" width="230" height="90" as="geometry" />
        </mxCell>
        <mxCell id="l5Z1TcpUIsbjkMdmSIx9-10" value="python_speech_recognition" style="rounded=0;whiteSpace=wrap;html=1;" parent="1" vertex="1">
          <mxGeometry x="250" y="390" width="260" height="105" as="geometry" />
        </mxCell>
        <mxCell id="KU8-5TRD34kJplSvUw6b-3" style="edgeStyle=orthogonalEdgeStyle;rounded=0;orthogonalLoop=1;jettySize=auto;html=1;exitX=0;exitY=0.25;exitDx=0;exitDy=0;entryX=1;entryY=0.25;entryDx=0;entryDy=0;" edge="1" parent="1" source="KU8-5TRD34kJplSvUw6b-1" target="l5Z1TcpUIsbjkMdmSIx9-1">
          <mxGeometry relative="1" as="geometry" />
        </mxCell>
        <mxCell id="KU8-5TRD34kJplSvUw6b-6" value="Request" style="edgeLabel;html=1;align=center;verticalAlign=middle;resizable=0;points=[];" vertex="1" connectable="0" parent="KU8-5TRD34kJplSvUw6b-3">
          <mxGeometry x="-0.3342" y="-1" relative="1" as="geometry">
            <mxPoint x="-22" as="offset" />
          </mxGeometry>
        </mxCell>
        <mxCell id="KU8-5TRD34kJplSvUw6b-5" style="edgeStyle=orthogonalEdgeStyle;rounded=0;orthogonalLoop=1;jettySize=auto;html=1;exitX=1;exitY=0.75;exitDx=0;exitDy=0;entryX=0;entryY=0.75;entryDx=0;entryDy=0;" edge="1" parent="1" source="KU8-5TRD34kJplSvUw6b-1" target="l5Z1TcpUIsbjkMdmSIx9-5">
          <mxGeometry relative="1" as="geometry" />
        </mxCell>
        <mxCell id="KU8-5TRD34kJplSvUw6b-8" value="Response" style="edgeLabel;html=1;align=center;verticalAlign=middle;resizable=0;points=[];" vertex="1" connectable="0" parent="KU8-5TRD34kJplSvUw6b-5">
          <mxGeometry x="-0.4255" y="1" relative="1" as="geometry">
            <mxPoint x="24" as="offset" />
          </mxGeometry>
        </mxCell>
        <mxCell id="KU8-5TRD34kJplSvUw6b-1" value="Speech_rec" style="rounded=0;whiteSpace=wrap;html=1;" vertex="1" parent="1">
          <mxGeometry x="570" y="200" width="210" height="80" as="geometry" />
        </mxCell>
        <mxCell id="KU8-5TRD34kJplSvUw6b-11" value="Speech reply generation" style="rounded=0;whiteSpace=wrap;html=1;" vertex="1" parent="1">
          <mxGeometry x="855" y="464" width="120" height="60" as="geometry" />
        </mxCell>
      </root>
    </mxGraphModel>
  </diagram>
</mxfile>
